# AST/ASF file generated using VICON BodyLanguage
# -----------------------------------------------
:version 1.10
:name VICON
:units
  mass 1.0
  length 0.45
  angle deg
:documentation
   .ast/.asf automatically generated from VICON data using
   VICON BodyBuilder and BodyLanguage model FoxedUp or BRILLIANT.MOD
:root
   order TX TY TZ RX RY RZ
   axis XYZ
   position 0 0 0  
   orientation 0 0 0 
:bonedata
  begin
     id 1 
     name lhipjoint
     direction 0.567149 -0.783011 0.255413 
     length 2.28399 
     axis 0 0 0  XYZ
  end
  begin
     id 2 
     name lfemur
     direction 0.34202 -0.939693 0  
     length 7.34031  
     axis 0 0 20  XYZ
    dof rx ry rz
    limits (-160.0 20.0)
           (-70.0 70.0)
           (-60.0 70.0)
  end
  begin
     id 3 
     name ltibia
     direction 0.34202 -0.939693 0   
     length 6.9833   
     axis 0 0 20   XYZ
    dof rx
    limits (-10.0 170.0)
  end
  begin
     id 4 
     name lfoot
     direction 0.136498 -0.375025 0.91691   
     length 2.33665   
     axis -90 7.62852e-016 20   XYZ
    dof rx rz
    limits (-45.0 90.0)
           (-70.0 20.0)
  end
  begin
     id 5 
     name ltoes
     direction 1.5367e-011 -4.21617e-011 1   
     length 1.15039   
     axis -90 7.62852e-016 20   XYZ
    dof rx
    limits (-90.0 20.0)
  end
  begin
     id 6 
     name rhipjoint
     direction -0.602854 -0.758518 0.247423   
     length 2.35775  
     axis 0 0 0  XYZ 
  end
  begin
     id 7 
     name rfemur
     direction -0.34202 -0.939693 0   
     length 7.43932   
     axis 0 0 -20   XYZ
    dof rx ry rz
    limits (-160.0 20.0)
           (-70.0 70.0)
           (-70.0 60.0)
  end
  begin
     id 8 
     name rtibia
     direction -0.34202 -0.939693 0   
     length 7.11893   
     axis 0 0 -20   XYZ
    dof rx
    limits (-10.0 170.0)
 end
 begin
     id 9 
     name rfoot
     direction -0.131771 -0.362037 0.922803   
     length 2.53019  
     axis -90 -7.62852e-016 -20   XYZ
    dof rx rz
    limits (-45.0 90.0)
           (-20.0 70.0)
  end
  begin
     id 10 
     name rtoes
     direction -1.53733e-011 -4.21932e-011 1   
     length 1.24596   
     axis -90 -7.62852e-016 -20   XYZ
    dof rx
    limits (-90.0 20.0)
  end
  begin
     id 11 
     name lowerback
     direction 0.0235427 0.999023 -0.0374125   
     length 2.21768   
     axis 0 0 0   XYZ
    dof rx ry rz
    limits (-20.0 45.0)
           (-30.0 30.0)
           (-30.0 30.0)
  end
  begin
     id 12 
     name upperback
     direction 0.0302156 0.996818 -0.073759   
     length 2.20352   
     axis 0 0 0   XYZ
    dof rx ry rz
    limits (-20.0 45.0)
           (-30.0 30.0)
           (-30.0 30.0)
  end
  begin
     id 13 
     name thorax
     direction 0.0187169 0.998235 -0.0563532   
     length 2.22103   
     axis 0 0 0   XYZ
    dof rx ry rz
    limits (-20.0 45.0)
           (-30.0 30.0)
           (-30.0 30.0)
  end
  begin
     id 14 
     name lowerneck
     direction -0.119528 0.987423 0.103481   
     length 1.72948   
     axis 0 0 0   XYZ
    dof rx ry rz
    limits (-20.0 45.0)
           (-30.0 30.0)
           (-30.0 30.0)
  end
  begin
     id 15 
     name upperneck
     direction 0.248049 0.963095 -0.104496   
     length 1.74979   
     axis 0 0 0   XYZ
    dof rx ry rz
    limits (-20.0 45.0)
           (-30.0 30.0)
           (-30.0 30.0)
  end
  begin
     id 16
     name head
     direction 0.0903589 0.994284 -0.056876  
     length 1.78268  
     axis 0 0 0   XYZ
    dof rx ry rz
    limits (-20.0 45.0)
           (-30.0 30.0)
           (-30.0 30.0)
  end
  begin
     id 17 
     name lclavicle
     direction 0.946008 0.242039 -0.215608  
     length 3.80783  
     axis 0 0 0   XYZ
    dof ry rz
    limits (-20.0 10.0)
           (0.0 20.0)
  end
  begin
     id 18 
     name lhumerus
     direction 1 -4.48991e-011 -2.25695e-027   
     length 4.83125   
     axis 180 -30 -90   XYZ
    dof rx ry rz
    limits (-60.0 90.0)
           (-90.0 90.0)
           (-90.0 90.0)
  end
  begin
     id 19
     name lradius
     direction 0.999991 0.00366712 -0.00211721   
     length 3.00391   
     axis 180 -30 -90   XYZ
    dof rx
    limits (-10.0 170.0)
  end
  begin
     id 20
     name lwrist
     direction 0.999991 0.00393016 -0.00141978   
     length 1.50195   
     axis -1.00488e-014 90 90   XYZ
    dof ry
    limits (-180.0 0.0)
 end
  begin
     id 21 
     name lhand
     direction 1 -4.49123e-011 2.72098e-026   
     length 1.2717   
     axis -1.73687e-014 90 90   XYZ
    dof rx rz
    limits (-90.0 90.0)
           (-45.0 45.0)
  end
  begin
     id 22 
     name lfingers
     direction 1 -4.48678e-011 5.4479e-026   
     length 1.02528   
     axis -3.47372e-014 90 90   XYZ
    dof rx
    limits (0.0 90.0)
  end
  begin
     id 23
     name lthumb
     direction 0.707107 -6.34851e-011 0.707107   
     length 1.4721   
     axis -90 45 -1.62303e-014   XYZ
    dof rx rz
    limits (-45.0 45.0)
           (-45.0 45.0)
  end
  begin
     id 24 
     name rclavicle
     direction -0.981723 0.189447 -0.0181673   
     length 3.74989  
     axis 0 0 0   XYZ 
    dof ry rz
    limits (-10.0 20.0)
           (-20.0 0.0)
  end
  begin
     id 25 
     name rhumerus
     direction -1 -4.48985e-011 2.38206e-027  
     length 4.61118   
     axis 180 30 90   XYZ
    dof rx ry rz
    limits (-90.0 60.0)
           (-90.0 90.0)
           (-90.0 90.0)
  end
  begin
     id 26 
     name rradius
     direction -1 -4.48977e-011 7.41019e-027   
     length 2.91491   
     axis 180 30 90   XYZ
    dof rx
    limits (-10.0 170.0)
  end
  begin
     id 27 
     name rwrist
     direction -1 -4.48549e-011 1.3624e-026   
     length 1.45745   
     axis -1.00488e-014 -90 -90   XYZ
    dof ry
    limits (-180.0 0.0)
  end
  begin
     id 28
     name rhand
     direction -1 -4.49107e-011 2.72109e-026   
     length 1.30769   
     axis -1.73687e-014 -90 -90   XYZ
    dof rx rz
    limits (-90.0 90.0)
           (-45.0 45.0)
  end
  begin
     id 29
     name rfingers
     direction -1 -4.48919e-011 5.44468e-026   
     length 1.05429   
     axis -3.47372e-014 -90 -90   XYZ
    dof rx
    limits (0.0 90.0)
  end
  begin
     id 30
     name rthumb
     direction -0.707107 -6.35315e-011 0.707107   
     length 1.51376   
     axis -90 -45 1.62303e-014   XYZ
    dof rx rz
    limits (-45.0 45.0)
           (-45.0 45.0)
  end
:hierarchy
  begin
    root lhipjoint rhipjoint lowerback
    lhipjoint lfemur
    lfemur ltibia
    ltibia lfoot
    lfoot ltoes
    rhipjoint rfemur
    rfemur rtibia
    rtibia rfoot
    rfoot rtoes
    lowerback upperback
    upperback thorax
    thorax lowerneck lclavicle rclavicle
    lowerneck upperneck
    upperneck head
    lclavicle lhumerus
    lhumerus lradius
    lradius lwrist
    lwrist lhand lthumb
    lhand lfingers
    rclavicle rhumerus
    rhumerus rradius
    rradius rwrist
    rwrist rhand rthumb
    rhand rfingers
  end

#!OML:ASF X:\für Bonn\!DataBase\2005_08_11_Bastian_Final\c3d\Bastian.ASF
:FULLY-SPECIFIED
:DEGREES
1
root 2.81065 17.252 -42.6285 551.07 -189.253 -182.695
lowerback 14.4683 -1.82306 4.60574
upperback 2.63615 -1.76959 -1.29347
thorax -5.49438 -0.951279 -3.64113
lowerneck -0.395694 -5.8269 -0.994157
upperneck -14.4123 -6.46992 12.6664
head -3.73263 -3.79099 4.22823
rclavicle 5.96354e-015 -9.54166e-015
rhumerus -67.0768 -1.03514 -78.4597
rradius 27.857
rwrist 2.99068
rhand -22.2123 10.7265
rfingers 7.12502
rthumb 4.20378 -19.2118
lclavicle 5.96354e-015 -9.54166e-015
lhumerus -57.8931 -0.225313 57.9939
lradius 32.6989
lwrist -177.945
lhand -20.0036 7.27576
lfingers 7.12502
lthumb 6.33634 37.161
rfemur -28.365 -3.49177 22.1623
rtibia 46.6651
rfoot -30.407 -6.48467
rtoes -22.1048
lfemur -24.9701 -5.1007 -16.0871
ltibia 41.7604
lfoot -26.9833 -12.5276
ltoes -11.7777
2
root 2.80736 17.1858 -42.6291 551.341 -189.198 -182.672
lowerback 15.4169 -1.8738 4.71049
upperback 2.4116 -1.77076 -1.29043
thorax -6.25738 -0.975115 -3.68051
lowerneck 0.103254 -5.82243 -1.09552
upperneck -14.8494 -6.41439 12.7053
head -3.94688 -3.79076 4.28884
rclavicle 2.84262e-014 0
rhumerus -67.8287 -0.884924 -78.4322
rradius 28.376
rwrist 2.77958
rhand -22.3488 10.8445
rfingers 7.12502
rthumb 4.07199 -19.0964
lclavicle 2.84262e-014 0
lhumerus -58.8289 0.399438 57.6217
lradius 33.0093
lwrist -176.669
lhand -19.6145 7.58789
lfingers 7.12502
lthumb 6.71198 37.4615
rfemur -29.3429 -3.88227 22.1968
rtibia 47.9598
rfoot -30.5715 -6.35312
rtoes -21.9952
lfemur -26.0889 -4.77733 -16.1079
ltibia 43.37
lfoot -27.0789 -12.5787
ltoes -11.1874
3
root 2.80336 17.1095 -42.6315 551.607 -189.16 -182.664
lowerback 16.3696 -1.94969 4.82835
upperback 2.15981 -1.80086 -1.30366
thorax -7.05831 -1.01584 -3.73893
lowerneck 0.692304 -5.79009 -1.16009
upperneck -15.2887 -6.31541 12.7616
head -4.18194 -3.77425 4.35201
rclavicle 2.06736e-014 7.95139e-016
rhumerus -68.4788 -0.702588 -78.4782
rradius 28.9137
rwrist 2.41468
rhand -22.1775 10.8964
rfingers 7.12502
rthumb 4.23733 -19.0412
lclavicle 2.06736e-014 7.95139e-016
lhumerus -59.698 1.08009 57.121
lradius 33.197
lwrist -175.416
lhand -19.221 8.6472
lfingers 7.12502
lthumb 7.09183 38.5084
rfemur -30.4103 -4.30589 22.2608
rtibia 49.4116
rfoot -30.6703 -6.1068
rtoes -21.2602
lfemur -27.2816 -4.47198 -16.1075
ltibia 45.1054
lfoot -27.1402 -12.6478
ltoes -10.0958
4
root 2.79985 17.0213 -42.6344 551.896 -189.101 -182.653
lowerback 17.2586 -2.00979 4.88839
upperback 1.90907 -1.81679 -1.25924
thorax -7.82128 -1.04694 -3.70644
lowerneck 1.30797 -5.74469 -1.34614
upperneck -15.7356 -6.20544 12.8209
head -4.42062 -3.74649 4.43727
rclavicle 1.59028e-015 2.38542e-015
rhumerus -68.9345 -0.571775 -78.3486
rradius 29.3057
rwrist 2.2161
rhand -21.8314 11.2177
rfingers 7.12502
rthumb 4.57154 -18.713
lclavicle 1.59028e-015 2.38542e-015
lhumerus -60.4082 2.02866 56.5555
lradius 33.2914
lwrist -174.203
lhand -18.9986 9.80949
lfingers 7.12502
lthumb 7.30647 39.6633
rfemur -31.5724 -4.69349 22.3222
rtibia 51.0076
rfoot -30.7519 -5.82607
rtoes -20.3156
lfemur -28.569 -4.1747 -16.1209
ltibia 46.9823
lfoot -27.2177 -12.6814
ltoes -8.82938
5
root 2.79583 16.9248 -42.6374 552.183 -189.033 -182.605
lowerback 18.1256 -2.05351 4.92821
upperback 1.65196 -1.81736 -1.24853
thorax -8.58137 -1.07084 -3.70312
lowerneck 2.03845 -5.71438 -1.45985
upperneck -16.2852 -6.10635 12.8491
head -4.71523 -3.7323 4.51026
rclavicle 4.41302e-014 1.07344e-014
rhumerus -69.2288 -0.570012 -78.2428
rradius 29.6835
rwrist 2.23661
rhand -21.7091 11.7216
rfingers 7.12502
rthumb 4.68967 -18.2065
lclavicle 4.41302e-014 1.07344e-014
lhumerus -60.9386 2.88921 56.0605
lradius 33.45
lwrist -172.947
lhand -18.8873 10.412
lfingers 7.12502
lthumb 7.41393 40.2621
rfemur -32.8087 -5.08112 22.3523
rtibia 52.7352
rfoot -30.8568 -5.49072
rtoes -19.1903
lfemur -29.8953 -3.92349 -16.175
ltibia 48.9634
lfoot -27.344 -12.6846
ltoes -7.51243
6
root 2.79168 16.8174 -42.6409 552.492 -188.948 -182.588
lowerback 18.9524 -2.07953 4.96336
upperback 1.38259 -1.79337 -1.20529
thorax -9.33277 -1.08242 -3.66905
lowerneck 2.82743 -5.68971 -1.61053
upperneck -16.8941 -6.01378 12.8814
head -5.0379 -3.722 4.59633
rclavicle -2.62396e-014 1.55052e-014
rhumerus -69.1401 -0.707232 -78.0073
rradius 29.7908
rwrist 2.51572
rhand -21.9062 12.5269
rfingers 7.12502
rthumb 4.49931 -17.4053
lclavicle -2.62396e-014 1.55052e-014
lhumerus -61.3098 3.79 55.7409
lradius 33.6076
lwrist -172.085
lhand -18.6666 11.4266
lfingers 7.12502
lthumb 7.62694 41.2691
rfemur -34.132 -5.43076 22.4187
rtibia 54.5579
rfoot -31.0365 -5.16585
rtoes -18.1547
lfemur -31.2947 -3.65221 -16.1986
ltibia 51.0363
lfoot -27.4587 -12.7174
ltoes -6.20468
7
root 2.78867 16.7048 -42.6417 552.779 -188.788 -182.556
lowerback 19.8114 -2.0756 4.98136
upperback 1.09251 -1.73358 -1.19045
thorax -10.126 -1.07869 -3.66701
lowerneck 3.75876 -5.65878 -1.75449
upperneck -17.6199 -5.89936 12.9349
head -5.42521 -3.70907 4.69908
rclavicle 1.98785e-016 1.07344e-014
rhumerus -68.814 -1.00524 -77.6902
rradius 29.7079
rwrist 3.03026
rhand -22.1171 13.2039
rfingers 7.12502
rthumb 4.29572 -16.7325
lclavicle 1.98785e-016 1.07344e-014
lhumerus -61.5031 4.79989 55.4669
lradius 33.7738
lwrist -171.433
lhand -18.4 11.9822
lfingers 7.12502
lthumb 7.8843 41.8152
rfemur -35.4593 -5.68966 22.4431
rtibia 56.4677
rfoot -31.2955 -4.69814
rtoes -17.1703
lfemur -32.6698 -3.37245 -16.2628
ltibia 53.1679
lfoot -27.6623 -12.719
ltoes -5.41575
8
root 2.78529 16.5862 -42.6409 553.066 -188.623 -182.509
lowerback 20.6742 -2.07379 4.95374
upperback 0.836931 -1.68524 -1.16245
thorax -10.8869 -1.07638 -3.62298
lowerneck 4.51965 -5.61117 -1.95049
upperneck -18.3066 -5.77162 13.0217
head -5.77134 -3.68166 4.81373
rclavicle -1.09332e-014 2.78299e-015
rhumerus -68.1919 -1.29047 -77.4422
rradius 29.5855
rwrist 3.61125
rhand -22.4011 13.7187
rfingers 7.12502
rthumb 4.02144 -16.223
lclavicle -1.09332e-014 2.78299e-015
lhumerus -61.4356 5.88069 55.3525
lradius 33.8597
lwrist -170.746
lhand -18.1443 12.3308
lfingers 7.12502
lthumb 8.13103 42.1543
rfemur -36.8191 -5.94353 22.4606
rtibia 58.4355
rfoot -31.5598 -4.11291
rtoes -16.0127
lfemur -34.057 -3.0983 -16.3533
ltibia 55.3486
lfoot -27.9398 -12.6749
ltoes -4.55085
9
root 2.78211 16.4557 -42.6383 553.334 -188.513 -182.466
lowerback 21.5014 -2.08648 4.96219
upperback 0.598585 -1.6509 -1.14756
thorax -11.616 -1.08179 -3.61187
lowerneck 5.44898 -5.55985 -2.07738
upperneck -19.1543 -5.62217 13.0819
head -6.20714 -3.65422 4.92355
rclavicle 2.00773e-014 0
rhumerus -67.3752 -1.70169 -77.268
rradius 29.5326
rwrist 4.23955
rhand -23.0847 14.2217
rfingers 7.12502
rthumb 3.36129 -15.7315
lclavicle 2.00773e-014 0
lhumerus -61.1328 6.73381 55.5154
lradius 33.8933
lwrist -169.814
lhand -17.8619 12.4745
lfingers 7.12502
lthumb 8.40364 42.2873
rfemur -38.2088 -6.20675 22.4878
rtibia 60.4774
rfoot -31.7915 -3.526
rtoes -14.7472
lfemur -35.4421 -2.83944 -16.4413
ltibia 57.5773
lfoot -28.2871 -12.6748
ltoes -3.44942
10
root 2.77817 16.3202 -42.6292 553.628 -188.441 -182.359
lowerback 22.1878 -2.09978 4.9051
upperback 0.365219 -1.6406 -1.12648
thorax -12.2648 -1.09241 -3.5507
lowerneck 6.60826 -5.49062 -2.32539
upperneck -20.1605 -5.4354 13.2341
head -6.73515 -3.61643 5.10143
rclavicle 1.5704e-014 7.55382e-015
rhumerus -66.4511 -2.06581 -77.1444
rradius 29.4842
rwrist 4.7964
rhand -23.9422 15.1318
rfingers 7.12502
rthumb 2.53319 -14.8329
lclavicle 1.5704e-014 7.55382e-015
lhumerus -60.6704 7.42206 56.0318
lradius 33.9238
lwrist -168.329
lhand -17.5402 12.3952
lfingers 7.12502
lthumb 8.71406 42.1953
rfemur -39.6143 -6.5157 22.4694
rtibia 62.5621
rfoot -32.0553 -3.06681
rtoes -13.5885
lfemur -36.8358 -2.64735 -16.5854
ltibia 59.8358
lfoot -28.7842 -12.6927
ltoes -2.26812
11
root 2.77418 16.1786 -42.615 553.917 -188.419 -182.334
lowerback 22.7694 -2.13538 4.91333
upperback 0.137546 -1.64243 -1.05724
thorax -12.8537 -1.10875 -3.46941
lowerneck 7.79508 -5.39884 -2.61934
upperneck -21.1652 -5.22974 13.3882
head -7.27592 -3.56485 5.29209
rclavicle 1.47101e-014 1.59028e-014
rhumerus -65.4458 -2.27774 -77.1695
rradius 29.5245
rwrist 5.05822
rhand -24.7901 16.0149
rfingers 7.12502
rthumb 1.71432 -13.9579
lclavicle 1.47101e-014 1.59028e-014
lhumerus -60.1189 8.20322 56.5416
lradius 33.9417
lwrist -167.034
lhand -17.293 12.3476
lfingers 7.12502
lthumb 8.95263 42.1377
rfemur -41.0033 -6.79881 22.5412
rtibia 64.6918
rfoot -32.3855 -2.73291
rtoes -12.2006
lfemur -38.2242 -2.46727 -16.6276
ltibia 62.1191
lfoot -29.3605 -12.7893
ltoes -1.05822
